<?xml version="1.0" encoding="UTF-8" standalone="no"?>
<!-- Created with Inkscape (http://www.inkscape.org/) -->

<svg
   width="64.006897mm"
   height="142.7265mm"
   viewBox="0 0 64.006897 142.7265"
   version="1.1"
   id="svg1"
   inkscape:version="1.4.2 (ebf0e940, 2025-05-08)"
   sodipodi:docname="character2.svg"
   inkscape:export-filename="../assets/character2.png"
   inkscape:export-xdpi="91.116928"
   inkscape:export-ydpi="91.116928"
   xmlns:inkscape="http://www.inkscape.org/namespaces/inkscape"
   xmlns:sodipodi="http://sodipodi.sourceforge.net/DTD/sodipodi-0.dtd"
   xmlns="http://www.w3.org/2000/svg"
   xmlns:svg="http://www.w3.org/2000/svg">
  <sodipodi:namedview
     id="namedview1"
     pagecolor="#ffffff"
     bordercolor="#000000"
     borderopacity="0.25"
     inkscape:showpageshadow="2"
     inkscape:pageopacity="0.0"
     inkscape:pagecheckerboard="0"
     inkscape:deskcolor="#d1d1d1"
     inkscape:document-units="mm"
     inkscape:zoom="1.2082022"
     inkscape:cx="111.32242"
     inkscape:cy="269.40854"
     inkscape:window-width="2240"
     inkscape:window-height="1108"
     inkscape:window-x="0"
     inkscape:window-y="31"
     inkscape:window-maximized="1"
     inkscape:current-layer="layer1" />
  <defs
     id="defs1" />
  <g
     inkscape:label="Layer 1"
     inkscape:groupmode="layer"
     id="layer1"
     transform="translate(-63.312495,-66.924852)">
    <path
       style="fill:#ca4444;fill-opacity:1;stroke-width:3;stroke-linecap:square"
       d="m 94.484425,113.49498 -9.749581,-10.49347 c 0,0 -4.98762,-7.331951 -4.98762,-9.627752 0,-3.611661 30.505216,-2.680794 30.505216,-0.73553 0,1.881817 -6.3657,10.272572 -6.3657,10.272572 z"
       id="path4"
       sodipodi:nodetypes="ccsscc" />
    <ellipse
       style="fill:#49aaa1;fill-opacity:1;stroke-width:3;stroke-linecap:square"
       id="path1"
       cx="94.690041"
       cy="90.044579"
       rx="13.626695"
       ry="20.130344" />
    <path
       id="path3"
       style="fill:#3a1935;fill-opacity:1;stroke-width:2.63301;stroke-linecap:square"
       d="m 97.864311,92.289974 -2.94194,12.285906 -2.632397,-12.047464 c 0,0 -12.133524,2.287707 -12.532568,0.680293 0.03286,3.038621 2.144572,9.128831 2.144572,9.128831 0,0 -13.139481,2.86808 -15.548364,5.2297 -2.40888,2.36165 -4.160477,23.95336 -2.189572,35.0868 1.970903,11.13343 3.065446,15.51939 3.065446,15.51939 l 4.160986,1.34944 c 0,0 -1.642306,34.07539 0.328597,43.01586 1.970902,8.94048 15.657686,6.9159 25.512203,6.9159 9.854516,0 18.942636,-0.25274 20.475556,-4.46995 2.91742,-14.61622 3.11026,-30.77047 1.64223,-45.63019 0,0 4.60483,-4.42366 6.56986,-7.42257 2.96849,-4.53033 0.65662,-39.81024 -1.75227,-43.52139 -2.40888,-3.71114 -14.89115,-6.24137 -14.89115,-6.24137 0,0 0.97669,-5.465743 0.97669,-9.581035 -6e-4,-2.8e-5 -9.6e-4,2.9e-5 -0.002,0 -0.16962,1.396067 -12.386319,-0.298151 -12.386319,-0.298151 z"
       sodipodi:nodetypes="cccccssccssscssccccc" />
    <g
       id="g6"
       transform="matrix(1.0904463,0,0,1.1873531,-7.6066327,-12.6896)"
       style="fill:#391934;fill-opacity:1">
      <path
         style="fill:#391934;fill-opacity:1;stroke-width:3;stroke-linecap:square"
         d="m 74.482273,80.366526 c -2.820642,3.243272 17.304352,4.297055 26.750127,2.98084 9.44578,-1.316215 14.12995,-3.52281 10.49101,-5.535844 -3.63895,-2.013035 -34.420495,-0.688268 -37.241137,2.555004 z"
         id="path5"
         sodipodi:nodetypes="zssz" />
      <path
         style="fill:#391934;fill-opacity:1;stroke-width:3;stroke-linecap:square"
         d="m 81.915015,79.478054 c 0.07743,-0.619395 2.167882,-11.034884 4.877736,-11.654279 2.709855,-0.619398 4.478135,0.77012 5.949197,0.460422 1.471065,-0.309697 2.187509,-1.646222 5.981306,-1.104252 3.793796,0.54197 7.283236,10.802766 7.283236,10.802766 z"
         id="path6"
         sodipodi:nodetypes="cssscc" />
    </g>
  </g>
</svg>
